<?xml version="1.0" encoding="utf-8"?>
<!-- Generator: Adobe Illustrator 25.1.0, SVG Export Plug-In . SVG Version: 6.00 Build 0)  -->
<svg version="1.1" id="Layer_1" xmlns="http://www.w3.org/2000/svg" xmlns:xlink="http://www.w3.org/1999/xlink" x="0px" y="0px"
	 width="80px" height="10px" viewBox="0 0 80 10" style="enable-background:new 0 0 80 10;" xml:space="preserve">
<style type="text/css">
	.st0{clip-path:url(#SVGID_2_);}
	.st1{opacity:0.66;}
	.st2{fill:#16B6CA;}
	.st3{opacity:0.7;}
	.st4{opacity:0.74;}
	.st5{opacity:0.88;}
	.st6{opacity:0.83;}
</style>
<g>
	<defs>
		<rect id="SVGID_1_" y="0" width="80" height="9.9"/>
	</defs>
	<clipPath id="SVGID_2_">
		<use xlink:href="#SVGID_1_"  style="overflow:visible;"/>
	</clipPath>
	<g id="Capa_1" class="st0">
		<g id="Group">
			<g id="Group_2" class="st1">
				<path id="Vector" class="st2" d="M9.4,3.3c0.4,0,0.7-0.3,0.7-0.7C10.1,2.3,9.8,2,9.4,2C9.1,2,8.8,2.3,8.8,2.7
					C8.8,3,9.1,3.3,9.4,3.3z"/>
				<path id="Vector_2" class="st2" d="M9.4,3.5C9,3.5,8.6,3.1,8.6,2.7c0-0.5,0.4-0.8,0.8-0.8c0.5,0,0.8,0.4,0.8,0.8
					C10.3,3.1,9.9,3.5,9.4,3.5z M9.4,2.2c-0.3,0-0.5,0.2-0.5,0.5c0,0.3,0.2,0.5,0.5,0.5c0.3,0,0.5-0.2,0.5-0.5
					C9.9,2.4,9.7,2.2,9.4,2.2z"/>
			</g>
			<g id="Group_3" class="st1">
				<path id="Vector_3" class="st2" d="M18.4,6.7c-0.4,0-0.7,0.3-0.7,0.7C17.7,7.7,18,8,18.4,8C18.7,8,19,7.7,19,7.3
					C19,7,18.7,6.7,18.4,6.7z"/>
				<path id="Vector_4" class="st2" d="M18.4,8.2c-0.5,0-0.8-0.4-0.8-0.8c0-0.5,0.4-0.8,0.8-0.8c0.5,0,0.8,0.4,0.8,0.8
					C19.2,7.8,18.8,8.2,18.4,8.2z M18.4,6.8c-0.3,0-0.5,0.2-0.5,0.5c0,0.3,0.2,0.5,0.5,0.5c0.3,0,0.5-0.2,0.5-0.5
					C18.9,7,18.6,6.8,18.4,6.8z"/>
			</g>
			<g id="Group_4" class="st3">
				<path id="Vector_5" class="st2" d="M5,4.1C4.5,4.1,4.1,4.5,4.1,5c0,0.5,0.4,0.9,0.9,0.9c0.5,0,0.9-0.4,0.9-0.9S5.4,4.1,5,4.1z"
					/>
				<path id="Vector_6" class="st2" d="M5,6C4.4,6,4,5.6,4,5c0-0.6,0.5-1,1-1c0.6,0,1,0.5,1,1C6,5.6,5.5,6,5,6z M5,4.3
					C4.6,4.3,4.3,4.6,4.3,5c0,0.4,0.3,0.7,0.7,0.7c0.4,0,0.7-0.3,0.7-0.7C5.7,4.6,5.4,4.3,5,4.3z"/>
			</g>
			<g id="Group_5" class="st4">
				<path id="Vector_7" class="st2" d="M5,0.2c-0.5,0-0.9,0.4-0.9,0.9S4.5,1.9,5,1.9c0.5,0,0.9-0.4,0.9-0.9C5.8,0.6,5.4,0.2,5,0.2z"
					/>
				<path id="Vector_8" class="st2" d="M5,2.1c-0.6,0-1-0.5-1-1c0-0.6,0.5-1,1-1c0.6,0,1,0.5,1,1C6,1.6,5.5,2.1,5,2.1z M5,0.4
					c-0.4,0-0.7,0.3-0.7,0.7S4.6,1.7,5,1.7c0.4,0,0.7-0.3,0.7-0.7C5.7,0.7,5.4,0.4,5,0.4z"/>
			</g>
			<g id="Group_6" class="st3">
				<path id="Vector_9" class="st2" d="M22.8,4.2c-0.5,0-0.9,0.4-0.9,0.9s0.4,0.9,0.9,0.9c0.5,0,0.9-0.4,0.9-0.9
					C23.6,4.5,23.3,4.2,22.8,4.2z"/>
				<path id="Vector_10" class="st2" d="M22.8,6c-0.6,0-1-0.5-1-1c0-0.6,0.5-1,1-1s1,0.5,1,1C23.8,5.6,23.4,6,22.8,6z M22.8,4.3
					c-0.4,0-0.7,0.3-0.7,0.7c0,0.4,0.3,0.7,0.7,0.7c0.4,0,0.7-0.3,0.7-0.7C23.5,4.6,23.2,4.3,22.8,4.3z"/>
			</g>
			<g id="Group_7" class="st4">
				<path id="Vector_11" class="st2" d="M22.8,8.1c-0.5,0-0.9,0.4-0.9,0.9c0,0.5,0.4,0.9,0.9,0.9c0.5,0,0.9-0.4,0.9-0.9
					C23.6,8.5,23.3,8.1,22.8,8.1z"/>
				<path id="Vector_12" class="st2" d="M22.8,10c-0.6,0-1-0.5-1-1c0-0.6,0.5-1,1-1s1,0.5,1,1C23.8,9.5,23.4,10,22.8,10z M22.8,8.3
					c-0.4,0-0.7,0.3-0.7,0.7c0,0.4,0.3,0.7,0.7,0.7c0.4,0,0.7-0.3,0.7-0.7C23.5,8.6,23.2,8.3,22.8,8.3z"/>
			</g>
			<g id="Group_8" class="st5">
				<path id="Vector_13" class="st2" d="M0.9,6.1c-0.4,0-0.8,0.4-0.8,0.8c0,0.4,0.4,0.8,0.8,0.8s0.8-0.4,0.8-0.8
					C1.7,6.5,1.4,6.1,0.9,6.1z"/>
				<path id="Vector_14" class="st2" d="M0.9,7.8C0.4,7.8,0,7.4,0,6.9s0.4-0.9,0.9-0.9c0.5,0,0.9,0.4,0.9,0.9S1.5,7.8,0.9,7.8z
					 M0.9,6.3c-0.3,0-0.6,0.3-0.6,0.6c0,0.3,0.3,0.6,0.6,0.6s0.6-0.3,0.6-0.6C1.6,6.5,1.3,6.3,0.9,6.3z"/>
			</g>
			<g id="Group_9" class="st6">
				<path id="Vector_15" class="st2" d="M0.9,2.5c-0.4,0-0.8,0.4-0.8,0.8S0.5,4,0.9,4s0.8-0.4,0.8-0.8S1.4,2.5,0.9,2.5z"/>
				<path id="Vector_16" class="st2" d="M0.9,4.2C0.4,4.2,0,3.8,0,3.3s0.4-0.9,0.9-0.9c0.5,0,0.9,0.4,0.9,0.9S1.5,4.2,0.9,4.2z
					 M0.9,2.6c-0.3,0-0.6,0.3-0.6,0.6s0.3,0.6,0.6,0.6s0.6-0.3,0.6-0.6S1.3,2.6,0.9,2.6z"/>
			</g>
			<g id="Group_10">
				<path id="Vector_17" class="st2" d="M9.4,6.3c-0.6,0-1,0.5-1,1c0,0.6,0.5,1,1,1c0.6,0,1-0.5,1-1C10.4,6.8,10,6.3,9.4,6.3z"/>
				<path id="Vector_18" class="st2" d="M9.4,8.5C8.8,8.5,8.2,8,8.2,7.3s0.5-1.2,1.2-1.2c0.7,0,1.2,0.5,1.2,1.2S10.1,8.5,9.4,8.5z
					 M9.4,6.5c-0.5,0-0.9,0.4-0.9,0.9s0.4,0.9,0.9,0.9c0.5,0,0.9-0.4,0.9-0.9S9.9,6.5,9.4,6.5z"/>
			</g>
			<g id="Group_11">
				<path id="Vector_19" class="st2" d="M13.8,6.2c0.7,0,1.3-0.6,1.3-1.3c0-0.7-0.6-1.3-1.3-1.3c-0.7,0-1.3,0.6-1.3,1.3
					C12.6,5.7,13.1,6.2,13.8,6.2z"/>
				<path id="Vector_20" class="st2" d="M13.8,6.4c-0.8,0-1.4-0.6-1.4-1.4c0-0.8,0.6-1.4,1.4-1.4s1.4,0.6,1.4,1.4
					C15.2,5.7,14.6,6.4,13.8,6.4z M13.8,3.9c-0.6,0-1.1,0.5-1.1,1.1s0.5,1.1,1.1,1.1c0.6,0,1.1-0.5,1.1-1.1S14.4,3.9,13.8,3.9z"/>
			</g>
			<g id="Group_12">
				<path id="Vector_21" class="st2" d="M5,8.1c-0.5,0-0.9,0.4-0.9,0.9c0,0.5,0.4,0.9,0.9,0.9c0.5,0,0.9-0.4,0.9-0.9
					C5.8,8.5,5.4,8.1,5,8.1z"/>
				<path id="Vector_22" class="st2" d="M5,10c-0.6,0-1-0.5-1-1c0-0.6,0.5-1,1-1c0.6,0,1,0.5,1,1C6,9.5,5.5,10,5,10z M5,8.3
					c-0.4,0-0.7,0.3-0.7,0.7c0,0.4,0.3,0.7,0.7,0.7c0.4,0,0.7-0.3,0.7-0.7C5.7,8.6,5.4,8.3,5,8.3z"/>
			</g>
			<g id="Group_13">
				<path id="Vector_23" class="st2" d="M18.4,1.6c-0.6,0-1,0.5-1,1c0,0.6,0.5,1,1,1c0.6,0,1-0.5,1-1C19.4,2.1,18.9,1.6,18.4,1.6z"
					/>
				<path id="Vector_24" class="st2" d="M18.4,3.9c-0.7,0-1.2-0.5-1.2-1.2c0-0.7,0.5-1.2,1.2-1.2c0.7,0,1.2,0.5,1.2,1.2
					C19.6,3.3,19,3.9,18.4,3.9z M18.4,1.8c-0.5,0-0.9,0.4-0.9,0.9s0.4,0.9,0.9,0.9c0.5,0,0.9-0.4,0.9-0.9
					C19.2,2.2,18.8,1.8,18.4,1.8z"/>
			</g>
			<g id="Group_14">
				<path id="Vector_25" class="st2" d="M22.8,0.2c-0.5,0-0.9,0.4-0.9,0.9s0.4,0.9,0.9,0.9c0.5,0,0.9-0.4,0.9-0.9
					C23.6,0.6,23.3,0.2,22.8,0.2z"/>
				<path id="Vector_26" class="st2" d="M22.8,2.1c-0.6,0-1-0.5-1-1c0-0.6,0.5-1,1-1s1,0.5,1,1C23.8,1.6,23.4,2.1,22.8,2.1z
					 M22.8,0.4c-0.4,0-0.7,0.3-0.7,0.7s0.3,0.7,0.7,0.7c0.4,0,0.7-0.3,0.7-0.7C23.5,0.7,23.2,0.4,22.8,0.4z"/>
			</g>
			<g id="Group_15" class="st5">
				<path id="Vector_27" class="st2" d="M26.8,3.9c0.4,0,0.8-0.4,0.8-0.8c0-0.4-0.4-0.8-0.8-0.8c-0.4,0-0.8,0.4-0.8,0.8
					C26,3.6,26.4,3.9,26.8,3.9z"/>
				<path id="Vector_28" class="st2" d="M26.8,4.1c-0.5,0-0.9-0.4-0.9-0.9s0.4-0.9,0.9-0.9c0.5,0,0.9,0.4,0.9,0.9S27.3,4.1,26.8,4.1
					z M26.8,2.5c-0.3,0-0.6,0.3-0.6,0.6s0.3,0.6,0.6,0.6s0.6-0.3,0.6-0.6S27.2,2.5,26.8,2.5z"/>
			</g>
			<g id="Group_16" class="st6">
				<path id="Vector_29" class="st2" d="M26.8,7.5c0.4,0,0.8-0.3,0.8-0.8c0-0.4-0.3-0.8-0.8-0.8C26.4,6,26,6.3,26,6.7
					C26,7.2,26.4,7.5,26.8,7.5z"/>
				<path id="Vector_30" class="st2" d="M26.8,7.7c-0.5,0-0.9-0.4-0.9-0.9c0-0.5,0.4-0.9,0.9-0.9c0.5,0,0.9,0.4,0.9,0.9
					C27.8,7.3,27.3,7.7,26.8,7.7z M26.8,6.1c-0.3,0-0.6,0.3-0.6,0.6c0,0.3,0.3,0.6,0.6,0.6s0.6-0.3,0.6-0.6
					C27.4,6.4,27.2,6.1,26.8,6.1z"/>
			</g>
		</g>
		<g id="Group_17">
			<path id="Vector_31" class="st2" d="M33.6,5.3h3.7V4.6h-3.7V2.3h3.9V1.7h-4.6v6.6h4.7V7.6h-4V5.3z"/>
			<path id="Vector_32" class="st2" d="M45.1,6.8L41,1.7h-0.4v6.6h0.7V3.2l4.1,5.1l0,0h0.3V1.7h-0.7V6.8z"/>
			<path id="Vector_33" class="st2" d="M48.5,2.3h2.3v5.9h0.7V2.3h2.3V1.7h-5.3V2.3z"/>
			<path id="Vector_34" class="st2" d="M57.2,5.3h3.7V4.6h-3.7V2.3h3.9V1.7h-4.6v6.6h4.7V7.6h-4V5.3z"/>
			<path id="Vector_35" class="st2" d="M64.7,1.7H64v6.6h4.3V7.6h-3.6V1.7z"/>
			<path id="Vector_36" class="st2" d="M73.3,1.7l-2.9,6.5l-0.1,0.1h0.8l0.7-1.6h3.7l0.7,1.6h0.8l-3-6.6H73.3z M75.2,6H72l1.6-3.5
				L75.2,6L75.2,6z"/>
			<path id="Vector_37" class="st2" d="M80,1.7h-0.7v6.6H80V1.7z"/>
		</g>
	</g>
</g>
</svg>
